<?xml version="1.0" encoding="utf-8"?>
<!-- Generator: Adobe Illustrator 24.3.0, SVG Export Plug-In . SVG Version: 6.00 Build 0)  -->
<svg version="1.1" id="Layer_1" xmlns="http://www.w3.org/2000/svg" xmlns:xlink="http://www.w3.org/1999/xlink" x="0px" y="0px"
	 viewBox="0 0 380 190" style="enable-background:new 0 0 380 190;" xml:space="preserve">
<style type="text/css">
	.st0{fill:#FFFFFF;}
	.st1{fill:#FDEDEF;}
	.st2{fill:#EE4A62;}
	.st3{fill:#89898B;}
	.st4{fill:#EF5269;}
</style>
<g>
	<path shape-rendering="crispEdges" class="st0" d="M40,70c0-27.6,22.4-50,50-50h240c5.5,0,10,4.5,10,10v50c0,27.6-22.4,50-50,50H50
		c-5.5,0-10-4.5-10-10V70z"/>
	<circle class="st1" cx="95" cy="75" r="25"/>
	<path class="st2" d="M101.1,85.4c-1,0-2.3-0.3-4.3-1.5c-2.4-1.4-4.3-2.6-6.7-5c-2.3-2.3-3.5-3.8-5.1-6.7c-1.8-3.3-1.5-5-1.1-5.7
		c0.4-0.9,1-1.4,1.8-1.9c0.4-0.3,0.9-0.5,1.4-0.7c0,0,0.1,0,0.1-0.1c0.2-0.1,0.6-0.3,1.1-0.1c0.3,0.1,0.6,0.4,1,0.8
		c0.9,0.9,2.1,2.8,2.5,3.8c0.3,0.6,0.5,1.1,0.5,1.5c0,0.6-0.3,1-0.6,1.5c-0.1,0.1-0.1,0.2-0.2,0.3c-0.4,0.5-0.5,0.6-0.4,0.9
		c0.1,0.5,0.9,2,2.3,3.3s2.8,2.1,3.3,2.2c0.3,0.1,0.4,0,0.9-0.4c0.1-0.1,0.1-0.1,0.2-0.2c0.5-0.4,0.9-0.7,1.5-0.7h0
		c0.5,0,0.9,0.2,1.6,0.5c0.9,0.4,2.9,1.6,3.8,2.5c0.4,0.4,0.7,0.7,0.8,1c0.2,0.5,0,0.8-0.1,1.1c0,0,0,0.1-0.1,0.1
		c-0.2,0.5-0.5,1-0.7,1.4c-0.5,0.8-1,1.4-1.9,1.8C102.1,85.3,101.6,85.4,101.1,85.4z"/>
	<path class="st3" d="M140.1,66.1c-0.9,0-1.6-0.2-2.4-0.6c-0.7-0.4-1.3-1-1.7-1.7c-0.4-0.7-0.6-1.5-0.6-2.4s0.2-1.7,0.6-2.4
		c0.4-0.7,1-1.3,1.7-1.7c0.7-0.4,1.5-0.6,2.4-0.6c0.9,0,1.6,0.2,2.4,0.6c0.7,0.4,1.3,1,1.7,1.7c0.4,0.7,0.6,1.5,0.6,2.4
		s-0.2,1.7-0.6,2.4c-0.4,0.7-1,1.3-1.7,1.7C141.8,65.9,141,66.1,140.1,66.1z M140.1,64.1c0.7,0,1.3-0.2,1.7-0.7
		c0.4-0.5,0.7-1.1,0.7-1.9c0-0.8-0.2-1.4-0.7-1.9c-0.4-0.5-1-0.7-1.7-0.7c-0.7,0-1.3,0.2-1.8,0.7c-0.4,0.5-0.7,1.1-0.7,1.9
		c0,0.8,0.2,1.5,0.7,1.9C138.8,63.8,139.4,64.1,140.1,64.1z M154.6,66h-2.2l-3.7-5.6V66h-2.2v-9.1h2.2l3.7,5.7v-5.7h2.2V66z
		 M158.8,64.3h2.9V66h-5.1v-9.1h2.2V64.3z M165.4,56.9V66h-2.2v-9.1H165.4z M175.6,66h-2.2l-3.7-5.6V66h-2.2v-9.1h2.2l3.7,5.7v-5.7
		h2.2V66z M179.8,58.7v1.8h3v1.7h-3v2h3.4V66h-5.6v-9.1h5.6v1.8H179.8z M191.4,66.1c-0.7,0-1.3-0.1-1.8-0.3c-0.5-0.2-1-0.5-1.3-1
		c-0.3-0.4-0.5-0.9-0.5-1.5h2.4c0,0.3,0.2,0.6,0.4,0.8c0.2,0.2,0.5,0.3,0.8,0.3c0.3,0,0.6-0.1,0.8-0.2c0.2-0.2,0.3-0.4,0.3-0.6
		c0-0.2-0.1-0.4-0.2-0.6c-0.1-0.1-0.3-0.3-0.6-0.4c-0.2-0.1-0.5-0.2-0.9-0.3c-0.6-0.2-1.1-0.4-1.4-0.5s-0.7-0.5-1-0.8
		c-0.3-0.4-0.4-0.8-0.4-1.4c0-0.8,0.3-1.5,0.9-2c0.6-0.5,1.4-0.7,2.4-0.7c1,0,1.8,0.2,2.4,0.7c0.6,0.5,0.9,1.1,1,2h-2.4
		c0-0.3-0.1-0.5-0.3-0.7c-0.2-0.2-0.5-0.3-0.8-0.3c-0.3,0-0.5,0.1-0.6,0.2c-0.2,0.1-0.2,0.3-0.2,0.6c0,0.3,0.1,0.5,0.4,0.7
		c0.3,0.2,0.7,0.3,1.3,0.5c0.6,0.2,1.1,0.4,1.4,0.6c0.4,0.2,0.7,0.4,1,0.8s0.4,0.8,0.4,1.3c0,0.5-0.1,1-0.4,1.4
		c-0.3,0.4-0.6,0.8-1.1,1C192.7,66,192.1,66.1,191.4,66.1z M198.7,56.9v5.5c0,0.5,0.1,1,0.4,1.3s0.7,0.4,1.2,0.4s0.9-0.1,1.2-0.4
		c0.3-0.3,0.4-0.7,0.4-1.3v-5.5h2.2v5.4c0,0.8-0.2,1.5-0.5,2.1s-0.8,1-1.4,1.3c-0.6,0.3-1.2,0.4-1.9,0.4c-0.7,0-1.4-0.1-1.9-0.4
		c-0.6-0.3-1-0.7-1.3-1.3c-0.3-0.6-0.5-1.3-0.5-2.1v-5.4H198.7z M213,59.8c0,0.5-0.1,1-0.4,1.5c-0.2,0.4-0.6,0.8-1.1,1.1
		s-1.1,0.4-1.9,0.4h-1.4V66h-2.2v-9.1h3.6c0.7,0,1.3,0.1,1.8,0.4s0.9,0.6,1.1,1C212.9,58.7,213,59.2,213,59.8z M209.5,61
		c0.4,0,0.7-0.1,0.9-0.3c0.2-0.2,0.3-0.5,0.3-0.8s-0.1-0.6-0.3-0.8c-0.2-0.2-0.5-0.3-0.9-0.3h-1.2V61H209.5z M221.5,59.8
		c0,0.5-0.1,1-0.4,1.5c-0.2,0.4-0.6,0.8-1.1,1.1c-0.5,0.3-1.1,0.4-1.9,0.4h-1.4V66h-2.2v-9.1h3.6c0.7,0,1.3,0.1,1.8,0.4
		c0.5,0.3,0.9,0.6,1.1,1C221.4,58.7,221.5,59.2,221.5,59.8z M218,61c0.4,0,0.7-0.1,0.9-0.3c0.2-0.2,0.3-0.5,0.3-0.8
		s-0.1-0.6-0.3-0.8c-0.2-0.2-0.5-0.3-0.9-0.3h-1.2V61H218z M227.4,66.1c-0.9,0-1.6-0.2-2.4-0.6c-0.7-0.4-1.3-1-1.7-1.7
		c-0.4-0.7-0.6-1.5-0.6-2.4s0.2-1.7,0.6-2.4c0.4-0.7,1-1.3,1.7-1.7c0.7-0.4,1.5-0.6,2.4-0.6c0.9,0,1.6,0.2,2.4,0.6
		c0.7,0.4,1.3,1,1.7,1.7c0.4,0.7,0.6,1.5,0.6,2.4s-0.2,1.7-0.6,2.4c-0.4,0.7-1,1.3-1.7,1.7C229,65.9,228.2,66.1,227.4,66.1z
		 M227.4,64.1c0.7,0,1.3-0.2,1.7-0.7c0.4-0.5,0.7-1.1,0.7-1.9c0-0.8-0.2-1.4-0.7-1.9c-0.4-0.5-1-0.7-1.7-0.7c-0.7,0-1.3,0.2-1.8,0.7
		c-0.4,0.5-0.7,1.1-0.7,1.9c0,0.8,0.2,1.5,0.7,1.9C226.1,63.8,226.7,64.1,227.4,64.1z M238.3,66l-1.9-3.4h-0.5V66h-2.2v-9.1h3.7
		c0.7,0,1.3,0.1,1.8,0.4c0.5,0.3,0.9,0.6,1.1,1c0.3,0.4,0.4,0.9,0.4,1.5c0,0.6-0.2,1.1-0.5,1.6c-0.3,0.5-0.8,0.8-1.5,1l2.1,3.6
		H238.3z M235.9,61h1.4c0.4,0,0.7-0.1,0.9-0.3c0.2-0.2,0.3-0.5,0.3-0.8c0-0.3-0.1-0.6-0.3-0.8c-0.2-0.2-0.5-0.3-0.9-0.3h-1.4V61z
		 M249.1,56.9v1.8h-2.4V66h-2.2v-7.3h-2.4v-1.8H249.1z"/>
	<path class="st4" d="M141.2,91.8v-4.3h-4.3v-1.7h4.3v-4.3h1.7v4.3h4.3v1.7h-4.3v4.3H141.2z"/>
	<g>
		<path class="st4" d="M152.3,91.8v-1.3l3.8-5.1c0.2-0.3,0.4-0.6,0.5-0.9c0.1-0.3,0.2-0.6,0.2-0.9v0c0-0.4-0.1-0.8-0.4-1
			c-0.3-0.2-0.6-0.4-1.1-0.4c-0.4,0-0.8,0.1-1.1,0.4s-0.4,0.6-0.5,1.1v0h-1.6v0c0.1-0.9,0.5-1.7,1-2.2c0.6-0.5,1.3-0.8,2.1-0.8
			c1,0,1.7,0.2,2.3,0.7s0.8,1.2,0.8,2.1v0c0,0.4-0.1,0.8-0.2,1.2s-0.4,0.8-0.7,1.2l-3.2,4.3h4.1v1.5H152.3z"/>
		<path class="st4" d="M163.5,92c-1,0-1.8-0.3-2.3-0.8c-0.5-0.6-0.8-1.3-0.8-2.3v-5c0-1,0.3-1.7,0.8-2.3c0.5-0.6,1.3-0.8,2.3-0.8
			c1,0,1.8,0.3,2.3,0.8s0.8,1.3,0.8,2.3v5c0,1-0.3,1.7-0.8,2.3S164.6,92,163.5,92z M163.5,90.5c0.6,0,1-0.1,1.2-0.4
			c0.2-0.3,0.4-0.7,0.4-1.2v-5c0-0.5-0.1-0.9-0.4-1.2c-0.2-0.3-0.7-0.4-1.2-0.4c-0.6,0-1,0.1-1.2,0.4c-0.2,0.3-0.4,0.7-0.4,1.2v5
			c0,0.5,0.1,0.9,0.4,1.2C162.6,90.3,163,90.5,163.5,90.5z"/>
		<path class="st4" d="M175.7,80.9v10.9h-1.5v-9.3l-1.6,1v-1.6l1.6-1H175.7z"/>
		<path class="st4" d="M180.8,80.9v10.9h-1.5v-9.3l-1.6,1v-1.6l1.6-1H180.8z"/>
		<path class="st4" d="M183.2,90.2v-1.3l3.7-7.9h1.6l-3.6,7.8h5.4v1.4H183.2z M187.9,91.8v-6.4h1.5v6.4H187.9z"/>
		<path class="st4" d="M195.3,92c-0.7,0-1.2-0.1-1.7-0.4c-0.5-0.3-0.9-0.6-1.2-1.1s-0.4-1-0.4-1.6v-0.2c0-0.5,0.1-1.1,0.4-1.5
			c0.3-0.5,0.6-0.8,1.1-1.1c-0.4-0.2-0.7-0.5-0.9-0.9c-0.2-0.4-0.4-0.8-0.4-1.3v-0.3c0-0.9,0.3-1.6,0.8-2.1c0.6-0.5,1.3-0.8,2.2-0.8
			s1.7,0.3,2.2,0.8c0.6,0.5,0.8,1.2,0.8,2.1v0.3c0,0.5-0.1,0.9-0.4,1.3c-0.2,0.4-0.6,0.7-0.9,0.9c0.5,0.2,0.8,0.6,1.1,1.1
			c0.3,0.5,0.4,1,0.4,1.5v0.2c0,0.6-0.1,1.1-0.4,1.6s-0.7,0.8-1.2,1.1C196.5,91.8,195.9,92,195.3,92z M195.3,90.5
			c0.5,0,1-0.2,1.3-0.5c0.3-0.3,0.5-0.7,0.5-1.2v-0.1c0-0.5-0.2-0.9-0.5-1.2c-0.3-0.3-0.8-0.5-1.3-0.5s-1,0.2-1.3,0.5
			c-0.3,0.3-0.5,0.7-0.5,1.2v0.1c0,0.5,0.2,0.9,0.5,1.2C194.3,90.3,194.7,90.5,195.3,90.5z M195.3,85.5c0.5,0,0.8-0.1,1.1-0.4
			s0.4-0.7,0.4-1.2v-0.1c0-0.5-0.1-0.8-0.4-1.1c-0.3-0.3-0.7-0.4-1.1-0.4s-0.8,0.1-1.1,0.4c-0.3,0.3-0.4,0.7-0.4,1.1v0.1
			c0,0.5,0.1,0.9,0.4,1.2C194.4,85.4,194.8,85.5,195.3,85.5z"/>
		<path class="st4" d="M206,91.8l2.8-5.4l0,0.3c-0.1,0.2-0.3,0.4-0.6,0.5c-0.3,0.1-0.6,0.2-0.9,0.2c-0.8,0-1.4-0.3-1.9-0.9
			c-0.5-0.6-0.7-1.4-0.7-2.3v0c0-1.1,0.3-1.9,0.8-2.5c0.5-0.6,1.3-0.9,2.3-0.9s1.7,0.3,2.2,0.9c0.5,0.6,0.8,1.4,0.8,2.5v0
			c0,0.4-0.1,0.9-0.2,1.4s-0.3,1-0.6,1.5l-2.3,4.7H206z M207.7,85.9c0.5,0,0.9-0.2,1.1-0.5c0.3-0.3,0.4-0.8,0.4-1.4v0
			c0-0.6-0.1-1-0.4-1.3s-0.6-0.5-1.1-0.5c-0.5,0-0.9,0.2-1.1,0.5s-0.4,0.8-0.4,1.3v0c0,0.6,0.1,1,0.4,1.4
			C206.8,85.8,207.2,85.9,207.7,85.9z"/>
		<path class="st4" d="M215.8,92c-0.8,0-1.5-0.2-2.1-0.7c-0.5-0.5-0.9-1.2-1-2v0h1.5v0c0.1,0.4,0.2,0.7,0.5,0.9
			c0.3,0.2,0.6,0.3,1,0.3c0.5,0,0.9-0.2,1.1-0.5c0.3-0.3,0.4-0.8,0.4-1.4v-0.9c0-0.6-0.1-1.1-0.4-1.4c-0.3-0.3-0.6-0.5-1.1-0.5
			c-0.3,0-0.5,0.1-0.8,0.2c-0.2,0.2-0.5,0.4-0.6,0.6H213v-5.8h5.6v1.5h-4v2.5c0.2-0.2,0.4-0.3,0.6-0.4c0.2-0.1,0.5-0.1,0.7-0.1
			c1,0,1.7,0.3,2.2,0.9c0.5,0.6,0.8,1.4,0.8,2.5v0.9c0,1.1-0.3,1.9-0.8,2.5C217.6,91.7,216.8,92,215.8,92z"/>
		<path class="st4" d="M223.8,80.9v10.9h-1.5v-9.3l-1.6,1v-1.6l1.6-1H223.8z"/>
		<path class="st4" d="M233.6,92c-1,0-1.8-0.3-2.3-0.8c-0.5-0.6-0.8-1.3-0.8-2.3v-5c0-1,0.3-1.7,0.8-2.3c0.5-0.6,1.3-0.8,2.3-0.8
			c1,0,1.8,0.3,2.3,0.8c0.5,0.5,0.8,1.3,0.8,2.3v5c0,1-0.3,1.7-0.8,2.3C235.4,91.7,234.6,92,233.6,92z M233.6,90.5
			c0.6,0,1-0.1,1.2-0.4c0.2-0.3,0.4-0.7,0.4-1.2v-5c0-0.5-0.1-0.9-0.4-1.2c-0.2-0.3-0.7-0.4-1.2-0.4c-0.6,0-1,0.1-1.2,0.4
			c-0.2,0.3-0.4,0.7-0.4,1.2v5c0,0.5,0.1,0.9,0.4,1.2C232.6,90.3,233,90.5,233.6,90.5z"/>
		<path class="st4" d="M244.6,80.9v1.4l-2.8,9.6h-1.6l2.8-9.5h-2.8v1.6h-1.5v-3H244.6z"/>
		<path class="st4" d="M249.9,92c-0.7,0-1.2-0.1-1.7-0.4c-0.5-0.3-0.9-0.6-1.2-1.1c-0.3-0.5-0.4-1-0.4-1.6v-0.2
			c0-0.5,0.1-1.1,0.4-1.5c0.3-0.5,0.6-0.8,1.1-1.1c-0.4-0.2-0.7-0.5-0.9-0.9c-0.2-0.4-0.4-0.8-0.4-1.3v-0.3c0-0.9,0.3-1.6,0.8-2.1
			c0.6-0.5,1.3-0.8,2.2-0.8c0.9,0,1.7,0.3,2.2,0.8c0.6,0.5,0.8,1.2,0.8,2.1v0.3c0,0.5-0.1,0.9-0.4,1.3c-0.2,0.4-0.6,0.7-0.9,0.9
			c0.5,0.2,0.8,0.6,1.1,1.1c0.3,0.5,0.4,1,0.4,1.5v0.2c0,0.6-0.1,1.1-0.4,1.6c-0.3,0.5-0.7,0.8-1.2,1.1
			C251.1,91.8,250.6,92,249.9,92z M249.9,90.5c0.5,0,1-0.2,1.3-0.5c0.3-0.3,0.5-0.7,0.5-1.2v-0.1c0-0.5-0.2-0.9-0.5-1.2
			c-0.3-0.3-0.8-0.5-1.3-0.5c-0.5,0-1,0.2-1.3,0.5c-0.3,0.3-0.5,0.7-0.5,1.2v0.1c0,0.5,0.2,0.9,0.5,1.2
			C248.9,90.3,249.4,90.5,249.9,90.5z M249.9,85.5c0.5,0,0.8-0.1,1.1-0.4c0.3-0.3,0.4-0.7,0.4-1.2v-0.1c0-0.5-0.1-0.8-0.4-1.1
			c-0.3-0.3-0.7-0.4-1.1-0.4c-0.5,0-0.8,0.1-1.1,0.4c-0.3,0.3-0.4,0.7-0.4,1.1v0.1c0,0.5,0.1,0.9,0.4,1.2
			C249.1,85.4,249.4,85.5,249.9,85.5z"/>
	</g>
</g>
</svg>
